<svg width="24" height="28" viewBox="0 0 24 28" fill="none" xmlns="http://www.w3.org/2000/svg">
<g clip-path="url(#clip0_2716_130194)">
<path d="M23.2364 9.5452C23.0654 9.6712 20.0462 11.2868 20.0462 14.8792C20.0462 19.0344 23.888 20.5044 24.0029 20.5408C23.9853 20.6304 23.3926 22.554 21.9774 24.514C20.7155 26.2388 19.3975 27.9608 17.3926 27.9608C15.3877 27.9608 14.8717 26.8548 12.5572 26.8548C10.3017 26.8548 9.49975 27.9972 7.66585 27.9972C5.83194 27.9972 4.55233 26.4012 3.08108 24.4412C1.3769 22.1396 0 18.564 0 15.1704C0 9.7272 3.72678 6.8404 7.39459 6.8404C9.34349 6.8404 10.9681 8.0556 12.1916 8.0556C13.3563 8.0556 15.1725 6.7676 17.3897 6.7676C18.23 6.7676 21.2491 6.8404 23.2364 9.5452ZM16.3371 4.4632C17.2541 3.43 17.9027 1.9964 17.9027 0.5628C17.9027 0.364 17.885 0.1624 17.8467 0C16.3548 0.0532 14.5799 0.9436 13.5096 2.1224C12.6693 3.0296 11.885 4.4632 11.885 5.9164C11.885 6.1348 11.9233 6.3532 11.941 6.4232C12.0354 6.44 12.1887 6.4596 12.342 6.4596C13.6806 6.4596 15.3641 5.6084 16.3371 4.4632Z" fill="black"/>
</g>
<defs>
<clipPath id="clip0_2716_130194">
<rect width="24" height="28" fill="white"/>
</clipPath>
</defs>
</svg>
