<svg width="42" height="41" viewBox="0 0 42 41" fill="none" xmlns="http://www.w3.org/2000/svg">
<path d="M37.3379 12.1367C33.7044 12.5909 26.71 13.2268 22.3499 12.1367" stroke="black" stroke-width="2" stroke-linejoin="round"/>
<path d="M37.3379 24.4023C31.8877 25.7649 26.4375 25.7649 20.9873 24.4023" stroke="black" stroke-width="2" stroke-linejoin="round"/>
<path d="M21.6691 3.96252L38.0196 3.28125C39.3822 6.00634 39.3822 10.094 37.3384 12.1378C39.3822 18.2692 38.7009 19.6318 37.3384 24.4007C39.3822 29.1696 39.3821 33.9385 36.6571 36.6636H8.04363C6.68097 34.6198 6.68097 31.8947 8.04363 29.8509C9.96374 26.971 18.9439 29.8509 20.9877 24.4007C19.625 20.3131 20.9877 14.9263 22.3504 12.1378C19.6253 7.23263 20.7607 4.6438 21.6691 3.96252Z" stroke="black" stroke-width="2" stroke-linejoin="round"/>
<path d="M6.65116 34.105C4.62942 34.105 3.22786 34.105 2.93686 34.105C1.67856 32.2178 1.67856 29.7014 2.93686 27.8141C4.7099 25.1548 13.0022 27.8141 14.8895 22.7814C13.6312 19.0068 14.4145 15.7009 15.5186 13.1577C13.0022 8.62819 14.0507 6.23763 14.8895 5.60854L20.7723 5.36342" stroke="black" stroke-width="2" stroke-linejoin="round"/>
</svg>
